SplineFontDB: 3.1
FontName: Coiny-Regular
FullName: Coiny
FamilyName: Coiny
Weight: Regular
Copyright: Copyright (c) 2015, Marcelo Magalhaes
Version: 001.000
ItalicAngle: 0
UnderlinePosition: -100
UnderlineWidth: 50
Ascent: 760
Descent: 240
InvalidEm: 0
sfntRevision: 0x00010000
LayerCount: 2
Layer: 0 0 "Back" 1
Layer: 1 0 "Fore" 0
XUID: [1021 197 757643960 9156487]
FSType: 0
OS2Version: 4
OS2_WeightWidthSlopeOnly: 0
OS2_UseTypoMetrics: 1
CreationTime: 1439246807
ModificationTime: 1439256944
PfmFamily: 17
TTFWeight: 400
TTFWidth: 5
LineGap: 90
VLineGap: 0
Panose: 2 0 5 3 0 0 0 0 0 0
OS2TypoAscent: 760
OS2TypoAOffset: 0
OS2TypoDescent: -240
OS2TypoDOffset: 0
OS2TypoLinegap: 90
OS2WinAscent: 765
OS2WinAOffset: 0
OS2WinDescent: 240
OS2WinDOffset: 0
HheadAscent: 765
HheadAOffset: 0
HheadDescent: -240
HheadDOffset: 0
OS2SubXSize: 650
OS2SubYSize: 700
OS2SubXOff: 0
OS2SubYOff: 140
OS2SupXSize: 650
OS2SupYSize: 700
OS2SupXOff: 0
OS2SupYOff: 480
OS2StrikeYSize: 49
OS2StrikeYPos: 258
OS2CapHeight: 0
OS2XHeight: 515
OS2Vendor: 'PfEd'
OS2CodePages: 00000001.00000000
OS2UnicodeRanges: 00000005.00000000.00000000.00000000
MarkAttachClasses: 1
DEI: 91125
LangName: 1033 "" "" "" "FontForge : Coiny : 10-8-2015"
Encoding: ISO8859-1
UnicodeInterp: none
NameList: AGL For New Fonts
DisplaySize: -72
AntiAlias: 1
FitToEm: 1
WinInfo: 0 14 9
BeginPrivate: 7
BlueValues 14 [-4 0 515 515]
OtherBlues 11 [-240 -240]
BlueShift 1 0
StdHW 5 [134]
StdVW 5 [236]
StemSnapH 36 [79 117 122 134 147 162 170 178 711]
StemSnapV 35 [90 95 102 213 217 224 236 243 258]
EndPrivate
BeginChars: 258 30

StartChar: a
Encoding: 97 97 2
Width: 362
GlyphClass: 2
Flags: MW
HStem: -4 134 380 135
VStem: 30 236 382.557 236.347 400 102
LayerCount: 2
Back
Fore
SplineSet
399.518554688 252 m 0xe8
 399.518554688 314.041015625 377.685546875 380.138671875 328.327148438 380.431640625 c 0
 289.154296875 380.6640625 265.518554688 313.818359375 265.518554688 252 c 0
 265.518554688 194.393554688 285.447265625 130 327.518554688 130 c 0
 378.776367188 130 399.518554688 192.95703125 399.518554688 252 c 0xe8
228.518554688 -4.228515625 m 0
 118.83984375 -4.228515625 29.8935546875 88 29.8935546875 252 c 0
 29.8935546875 416.000976562 114.659179688 515 228.151367188 515 c 0
 386.10546875 515 501.518554688 359.74609375 501.518554688 261.385742188 c 0
 501.518554688 91.3779296875 381.049804688 -4.228515625 228.518554688 -4.228515625 c 0
618.904296875 115.963867188 m 0x10
 618.904296875 28.1796875 583.970703125 -1.0703125 494 0 c 0
 404.029296875 1.0703125 382.556640625 41.509765625 382.556640625 128 c 0
 382.556640625 214.490234375 384.469726562 315 384.469726562 388.513671875 c 0
 384.469726562 462.028320312 425.037109375 511.77734375 493.340820312 510.963867188 c 0
 561.64453125 510.150390625 616.068359375 489.889648438 616.068359375 391.6953125 c 0
 616.068359375 293.5 618.904296875 203.749023438 618.904296875 115.963867188 c 0x10
EndSplineSet
EndChar

StartChar: b
Encoding: 98 98 3
Width: 297
GlyphClass: 2
Flags: MW
HStem: -4 134 0 711 380 135
VStem: 42.1429 217 154.143 102 390.143 236
LayerCount: 2
Back
Fore
SplineSet
256.036132812 252 m 0xac
 256.036132812 192.95703125 276.778320312 130 328.036132812 130 c 0
 370.107421875 130 390.036132812 194.393554688 390.036132812 252 c 0
 390.036132812 313.818359375 366.400390625 380.6640625 327.227539062 380.431640625 c 0
 277.868164062 380.138671875 256.036132812 314.041015625 256.036132812 252 c 0xac
427.036132812 -4.228515625 m 0
 274.504882812 -4.228515625 154.036132812 91.3779296875 154.036132812 261.385742188 c 0
 154.036132812 359.615234375 269.44921875 516.188476562 427.403320312 515 c 0
 540.892578125 514.147460938 625.661132812 416.000976562 625.661132812 252 c 0
 625.661132812 88 536.715820312 -4.228515625 427.036132812 -4.228515625 c 0
272.661132812 163.373046875 m 0x50
 272.661132812 35 231.131835938 0 153.142578125 0 c 0
 75.1533203125 0 35.71875 35 35.71875 155.063476562 c 0
 35.71875 275.125976562 33.2978515625 507.288085938 33.2978515625 601.643554688 c 0
 33.2978515625 696 84.8388671875 732.837890625 153.142578125 732.024414062 c 0
 221.446289062 731.2109375 261.15625 716.825195312 267.314453125 611.413085938 c 0
 273.473632812 506 272.661132812 291.745117188 272.661132812 163.373046875 c 0x50
EndSplineSet
EndChar

StartChar: c
Encoding: 99 99 4
Width: 584
GlyphClass: 2
Flags: MW
HStem: -4.22852 170.229 397.713 117.287
VStem: 30.5801 236.127
LayerCount: 2
Back
Fore
SplineSet
338.185546875 297.848632812 m 0
 338.185546875 325.848632812 354.798828125 350.1015625 354.798828125 366.668945312 c 0
 354.798828125 385.249023438 348.60546875 397.711914062 326.60546875 397.711914062 c 0
 290.000976562 397.711914062 266.708007812 335.39453125 266.708007812 275.999023438 c 0
 266.708007812 211.499023438 309.610351562 165.999023438 378.186523438 165.999023438 c 0
 412.21875 165.999023438 447.186523438 169.999023438 474.60546875 178.049804688 c 0
 509.240234375 188.21875 522.928710938 206.911132812 541.759765625 206.911132812 c 0
 576.686523438 206.911132812 593.686523438 186.999023438 593.686523438 165.999023438 c 0
 593.686523438 117.499023438 502.515625 -4.2294921875 336.000976562 -4.2294921875 c 0
 165.006835938 -4.2294921875 30.5810546875 87.9990234375 30.5810546875 251.810546875 c 0
 30.5810546875 416 159.107421875 514.999023438 336.000976562 514.999023438 c 0
 513.415039062 514.999023438 581.774414062 450.499023438 581.774414062 359.999023438 c 0
 581.774414062 313.176757812 546.000976562 232.8828125 423.186523438 232.8828125 c 0
 376.748046875 232.8828125 338.185546875 238.623046875 338.185546875 297.848632812 c 0
EndSplineSet
EndChar

StartChar: d
Encoding: 100 100 5
Width: 320
GlyphClass: 2
Flags: MW
HStem: -4 134 0 711 380 135
VStem: 30 236 391 217 400 102
LayerCount: 2
Back
Fore
SplineSet
399.518554688 252 m 0xb4
 399.518554688 314.041015625 377.685546875 380.138671875 328.327148438 380.431640625 c 0
 289.154296875 380.6640625 265.518554688 313.818359375 265.518554688 252 c 0
 265.518554688 194.393554688 285.447265625 130 327.518554688 130 c 0
 378.776367188 130 399.518554688 192.95703125 399.518554688 252 c 0xb4
228.518554688 -4.228515625 m 0
 118.83984375 -4.228515625 29.8935546875 88 29.8935546875 252 c 0
 29.8935546875 416.000976562 114.659179688 515 228.151367188 515 c 0
 386.10546875 515 501.518554688 359.74609375 501.518554688 261.385742188 c 0
 501.518554688 91.3779296875 381.049804688 -4.228515625 228.518554688 -4.228515625 c 0
621.518554688 163.373046875 m 0x48
 621.518554688 35 579.989257812 0 502 0 c 0
 424.010742188 0 384.576171875 35 384.576171875 155.063476562 c 0
 384.576171875 275.125976562 382.155273438 507.288085938 382.155273438 601.643554688 c 0
 382.155273438 696 433.696289062 732.837890625 502 732.024414062 c 0
 570.303710938 731.2109375 610.013671875 716.825195312 616.171875 611.413085938 c 0
 622.331054688 506 621.518554688 291.745117188 621.518554688 163.373046875 c 0x48
EndSplineSet
EndChar

StartChar: e
Encoding: 101 101 6
Width: 601
GlyphClass: 2
Flags: MW
HStem: -4.22852 170.229<358.235 412.344 358.235 436.4> 230.5 79.5<128.829 169.328> 397.713 117.287<329.445 354.747>
VStem: 371.941 226.976
LayerCount: 2
Back
Fore
SplineSet
353.142578125 -4.228515625 m 0
 182.1484375 -4.228515625 47.72265625 88 47.72265625 251.811523438 c 0
 47.72265625 416.000976562 176.249023438 515 353.142578125 515 c 0
 530.556640625 515 598.916015625 450.5 598.916015625 360 c 0
 598.916015625 299.569335938 552.319335938 233.990234375 437.828125 233 c 2
 128.829101562 230.5 l 1
 169.328125 310 l 1
 169.328125 310 337.35546875 313.333007812 348.2734375 313.333007812 c 0
 357.055664062 313.333007812 362.115234375 317.904296875 365.918945312 327.286132812 c 0
 369.72265625 336.666992188 371.940429688 350.102539062 371.940429688 366.669921875 c 0
 371.940429688 385.25 365.747070312 397.712890625 343.747070312 397.712890625 c 0
 315.142578125 397.712890625 283.849609375 348 283.849609375 283 c 0
 283.849609375 216 321.142578125 166 395.328125 166 c 0
 429.360351562 166 464.328125 170 491.747070312 178.05078125 c 0
 526.381835938 188.219726562 540.0703125 206.912109375 558.901367188 206.912109375 c 0
 593.828125 206.912109375 610.828125 187 610.828125 166 c 0
 610.828125 117.5 519.657226562 -4.228515625 353.142578125 -4.228515625 c 0
EndSplineSet
EndChar

StartChar: f
Encoding: 102 102 7
Width: 566
GlyphClass: 2
Flags: MW
HStem: 332.798 178.317 618 147<397.572 419.572>
VStem: 164.111 224.896 175.019 236.943
LayerCount: 2
Back
Fore
SplineSet
416.2578125 509.7890625 m 0x80
 337.340820312 510.708007812 263.709960938 510.047851562 177.272460938 511.115234375 c 0
 90.8349609375 512.182617188 69.6513671875 473.887695312 68.6005859375 421.333007812 c 0
 67.548828125 368.778320312 117.198242188 333.569335938 182.8984375 332.797851562 c 0
 248.599609375 332.02734375 329.393554688 333.1640625 406.079101562 333.3359375 c 0
 482.765625 333.5078125 521.723632812 343.936523438 523.19921875 412.116210938 c 0
 524.674804688 480.293945312 495.17578125 508.87109375 416.2578125 509.7890625 c 0x80
389.0078125 514.806640625 m 0x60
 383.443359375 601.61328125 387.072265625 618 408.072265625 618 c 0
 431.072265625 618 420.572265625 561.5 485.072265625 561.5 c 0
 532.572265625 561.5 562.072265625 586.5 562.072265625 652.5 c 0
 562.072265625 726.5 494.711914062 765 350.572265625 765 c 0
 206.432617188 765 164.112304688 666 164.112304688 510.909179688 c 0x60
 164.112304688 372.064453125 175.020507812 266 175.020507812 155.061523438 c 0
 175.020507812 35 214.456054688 0 292.444335938 0 c 0
 370.43359375 0 411.962890625 35 411.962890625 163.373046875 c 0x50
 411.962890625 291.74609375 395.166015625 409.39453125 389.0078125 514.806640625 c 0x60
EndSplineSet
EndChar

StartChar: g
Encoding: 103 103 8
Width: 841
GlyphClass: 2
Flags: MW
HStem: -240.229 170.229<458.626 509.931 458.626 603.325> -4 134 380 135
VStem: 235.143 236 587.121 236.127 605.143 102
LayerCount: 2
Back
Fore
SplineSet
587.12109375 40 m 0xf8
 587.12109375 126.490234375 588.530273438 315 588.530273438 388.513671875 c 0
 588.530273438 462.028320312 629.09765625 511.77734375 697.401367188 510.963867188 c 0
 765.705078125 510.150390625 820.12890625 489.889648438 820.12890625 391.6953125 c 0
 820.12890625 293.5 823.248046875 103.596679688 823.248046875 15.8115234375 c 0
 823.248046875 -148 688.822265625 -240.228515625 517.828125 -240.228515625 c 0
 351.313476562 -240.228515625 260.142578125 -118.5 260.142578125 -70 c 0
 260.142578125 -49 277.142578125 -29.087890625 312.069335938 -29.087890625 c 0
 330.900390625 -29.087890625 344.588867188 -47.7802734375 379.223632812 -57.94921875 c 0
 406.642578125 -66 441.610351562 -70 475.642578125 -70 c 0
 544.21875 -70 587.12109375 -24.5 587.12109375 40 c 0xf8
604.661132812 252 m 0x74
 604.661132812 314.041015625 582.828125 380.138671875 533.469726562 380.431640625 c 0
 494.296875 380.6640625 470.661132812 313.818359375 470.661132812 252 c 0
 470.661132812 194.393554688 490.58984375 130 532.661132812 130 c 0
 583.918945312 130 604.661132812 192.95703125 604.661132812 252 c 0x74
433.661132812 -4.228515625 m 0
 323.982421875 -4.228515625 235.036132812 88 235.036132812 252 c 0
 235.036132812 416.000976562 319.801757812 515 433.293945312 515 c 0
 591.248046875 515 706.661132812 359.74609375 706.661132812 261.385742188 c 0
 706.661132812 91.3779296875 586.192382812 -4.228515625 433.661132812 -4.228515625 c 0
EndSplineSet
EndChar

StartChar: h
Encoding: 104 104 9
Width: 663
GlyphClass: 2
Flags: MW
HStem: 0 21G<137.005 214.995 481.509 559.765> 0 711 495 20G<450.872 530.912>
VStem: 65 217 200.244 95.291<266.963 290.597 266.963 297.707> 398.867 233.212
LayerCount: 2
Back
Fore
SplineSet
397.556640625 286.563476562 m 0xac
 397.556640625 335.267578125 383.918945312 348.250976562 350 347.803710938 c 0
 317.188476562 347.356445312 295.53515625 314.231445312 295.53515625 266.962890625 c 1
 200.244140625 266.033203125 l 1
 200.244140625 329.380859375 216.569335938 408.59765625 275.7109375 454.043945312 c 0
 340.329101562 499.125 408.919921875 515 492.82421875 515 c 0
 569 515 619.888671875 473.243164062 625.432617188 393.100585938 c 0
 631.061523438 311.723632812 632.079101562 224.635742188 632.079101562 130.583007812 c 0
 632.079101562 37.962890625 604.869140625 0 514.661132812 0 c 0
 448.356445312 0 398.8671875 19.568359375 398.8671875 89.765625 c 0
 398.8671875 161.419921875 397.556640625 236.848632812 397.556640625 286.563476562 c 0xac
295.518554688 163.373046875 m 0x50
 295.518554688 35 253.989257812 0 176 0 c 0
 98.0107421875 0 58.576171875 35 58.576171875 155.063476562 c 0
 58.576171875 275.125976562 56.1552734375 507.288085938 56.1552734375 601.643554688 c 0
 56.1552734375 696 107.696289062 732.837890625 176 732.024414062 c 0
 244.303710938 731.2109375 284.013671875 716.825195312 290.171875 611.413085938 c 0
 296.331054688 506 295.518554688 291.745117188 295.518554688 163.373046875 c 0x50
EndSplineSet
EndChar

StartChar: i
Encoding: 105 105 10
Width: 362
GlyphClass: 2
Flags: MW
HStem: 546.319 165.198<148.268 214.181>
VStem: 46.6182 258.956<603.634 657.041> 58.5566 236.347
LayerCount: 2
Back
Fore
SplineSet
305.57421875 634.71484375 m 0xc0
 305.57421875 572.553710938 244.321289062 546.319335938 184.041015625 546.319335938 c 0
 112.494140625 546.319335938 46.6181640625 563.622070312 46.6181640625 628.987304688 c 0
 46.6181640625 685.09375 98.7490234375 711.517578125 177.173828125 711.517578125 c 0
 254.530273438 711.517578125 305.57421875 681.608398438 305.57421875 634.71484375 c 0xc0
294.904296875 115.963867188 m 0x20
 294.904296875 28.1796875 259.970703125 -1.0703125 170 0 c 0
 80.029296875 1.0703125 58.556640625 41.509765625 58.556640625 128 c 0
 58.556640625 214.490234375 60.4697265625 315 60.4697265625 388.513671875 c 0
 60.4697265625 462.028320312 101.037109375 511.77734375 169.340820312 510.963867188 c 0
 237.64453125 510.150390625 292.068359375 489.889648438 292.068359375 391.6953125 c 0
 292.068359375 293.5 294.904296875 203.749023438 294.904296875 115.963867188 c 0x20
EndSplineSet
EndChar

StartChar: l
Encoding: 108 108 11
Width: 320
GlyphClass: 2
Flags: MW
HStem: 0 711
VStem: 65 217
LayerCount: 2
Back
Fore
SplineSet
295.518554688 163.373046875 m 0
 295.518554688 35 253.989257812 0 176 0 c 0
 98.0107421875 0 58.576171875 35 58.576171875 155.063476562 c 0
 58.576171875 275.125976562 56.1552734375 507.288085938 56.1552734375 601.643554688 c 0
 56.1552734375 696 107.696289062 732.837890625 176 732.024414062 c 0
 244.303710938 731.2109375 284.013671875 716.825195312 290.171875 611.413085938 c 0
 296.331054688 506 295.518554688 291.745117188 295.518554688 163.373046875 c 0
EndSplineSet
EndChar

StartChar: m
Encoding: 109 109 12
Width: 1241
GlyphClass: 2
Flags: MW
HStem: 0 21G<737.08 815.336 1061.08 1139.34> 495 20G<708.375 786.483 1032.38 1110.48>
VStem: 327.128 236.347 465.816 95.291 654.439 233.212 789.816 95.291 978.439 233.212
LayerCount: 2
Back
Fore
SplineSet
977.127929688 286.563476562 m 0xc6
 977.127929688 335.267578125 966.357421875 348.250976562 939.571289062 347.803710938 c 0
 906.759765625 347.356445312 885.106445312 314.231445312 885.106445312 266.962890625 c 1
 789.815429688 266.033203125 l 1
 789.815429688 329.380859375 806.140625 408.59765625 865.282226562 454.043945312 c 0
 926.923828125 499.125 992.35546875 515 1072.39550781 515 c 0
 1148.57128906 515 1199.45996094 473.243164062 1205.00390625 393.100585938 c 0
 1210.6328125 311.723632812 1211.65039062 224.635742188 1211.65039062 130.583007812 c 0
 1211.65039062 37.962890625 1184.44042969 0 1094.23242188 0 c 0
 1027.92773438 0 978.438476562 19.568359375 978.438476562 89.765625 c 0
 978.438476562 161.419921875 977.127929688 236.848632812 977.127929688 286.563476562 c 0xc6
653.127929688 286.563476562 m 0
 653.127929688 335.267578125 642.357421875 348.250976562 615.571289062 347.803710938 c 0
 582.759765625 347.356445312 561.106445312 314.231445312 561.106445312 266.962890625 c 1
 465.815429688 266.033203125 l 1
 465.815429688 329.380859375 482.140625 408.59765625 541.282226562 454.043945312 c 0
 602.923828125 499.125 668.35546875 515 748.395507812 515 c 0
 824.571289062 515 875.459960938 473.243164062 881.00390625 393.100585938 c 0
 886.6328125 311.723632812 887.650390625 224.635742188 887.650390625 130.583007812 c 0
 887.650390625 37.962890625 860.440429688 0 770.232421875 0 c 0
 703.927734375 0 654.438476562 19.568359375 654.438476562 89.765625 c 0xda
 654.438476562 161.419921875 653.127929688 236.848632812 653.127929688 286.563476562 c 0
563.475585938 115.963867188 m 0x20
 563.475585938 28.1796875 528.541992188 -1.0703125 438.571289062 0 c 0
 348.600585938 1.0703125 327.127929688 41.509765625 327.127929688 128 c 0
 327.127929688 214.490234375 329.041015625 315 329.041015625 388.513671875 c 0
 329.041015625 462.028320312 369.608398438 511.77734375 437.912109375 510.963867188 c 0
 506.215820312 510.150390625 560.639648438 489.889648438 560.639648438 391.6953125 c 0
 560.639648438 293.5 563.475585938 203.749023438 563.475585938 115.963867188 c 0x20
EndSplineSet
EndChar

StartChar: n
Encoding: 110 110 13
Width: 636
GlyphClass: 2
Flags: MW
HStem: 0 21G<435.428 513.684> 495 20G<404.791 484.831>
VStem: 15.4755 236.347 154.163 95.291<266.963 290.597 266.963 297.707> 352.786 233.212
LayerCount: 2
Back
Fore
SplineSet
351.475585938 286.563476562 m 0xd8
 351.475585938 335.267578125 337.837890625 348.250976562 303.918945312 347.803710938 c 0
 271.107421875 347.356445312 249.454101562 314.231445312 249.454101562 266.962890625 c 1
 154.163085938 266.033203125 l 1
 154.163085938 329.380859375 170.48828125 408.59765625 229.629882812 454.043945312 c 0
 294.248046875 499.125 362.838867188 515 446.743164062 515 c 0
 522.918945312 515 573.807617188 473.243164062 579.3515625 393.100585938 c 0
 584.98046875 311.723632812 585.998046875 224.635742188 585.998046875 130.583007812 c 0
 585.998046875 37.962890625 558.788085938 0 468.580078125 0 c 0
 402.275390625 0 352.786132812 19.568359375 352.786132812 89.765625 c 0
 352.786132812 161.419921875 351.475585938 236.848632812 351.475585938 286.563476562 c 0xd8
251.823242188 115.963867188 m 0x20
 251.823242188 28.1796875 216.889648438 -1.0703125 126.918945312 0 c 0
 36.9482421875 1.0703125 15.4755859375 41.509765625 15.4755859375 128 c 0
 15.4755859375 214.490234375 17.388671875 315 17.388671875 388.513671875 c 0
 17.388671875 462.028320312 57.9560546875 511.77734375 126.259765625 510.963867188 c 0
 194.563476562 510.150390625 248.987304688 489.889648438 248.987304688 391.6953125 c 0
 248.987304688 293.5 251.823242188 203.749023438 251.823242188 115.963867188 c 0x20
EndSplineSet
EndChar

StartChar: o
Encoding: 111 111 14
Width: 620
GlyphClass: 2
Flags: MW
HStem: -4.22852 124.229<269.302 302.659 269.302 366.369> 495 20G<201.85 369.239>
VStem: -6.53502 243.106 332.571 243
LayerCount: 2
Back
Fore
SplineSet
332.571289062 253.92578125 m 0
 332.571289062 319.344726562 317.939453125 390.181640625 286.614257812 390.431640625 c 0
 254.825195312 390.680664062 236.571289062 318.514648438 236.571289062 253.998046875 c 0
 236.571289062 189.560546875 252.533203125 120 286.0703125 120 c 0
 319.248046875 120 332.571289062 188.591796875 332.571289062 253.92578125 c 0
285.538085938 -4.228515625 m 0
 123.876953125 -4.228515625 -6.53515625 88 -6.53515625 252 c 0
 -6.53515625 416.000976562 118.155273438 515 285.543945312 515 c 0
 452.93359375 515 575.571289062 416.000976562 575.571289062 252 c 0
 575.571289062 88 447.200195312 -4.228515625 285.538085938 -4.228515625 c 0
EndSplineSet
EndChar

StartChar: r
Encoding: 114 114 15
Width: 337
GlyphClass: 2
Flags: MW
HStem: 353 162
VStem: 35.6994 236.347 177.143 94
LayerCount: 2
Back
Fore
SplineSet
545.071289062 392.571289062 m 0xa0
 545.830078125 311.95703125 506.44140625 248.001953125 414.642578125 248.001953125 c 0
 322.84375 248.001953125 338.522460938 352.001953125 306.142578125 352.001953125 c 0
 273.762695312 352.001953125 269.939453125 327.711914062 270.862304688 274.072265625 c 1
 176.862304688 273.501953125 l 1
 176.862304688 338.08984375 203.733398438 409.26171875 252.990234375 452.240234375 c 0
 303.142578125 496.000976562 341.344726562 514.930664062 423.677734375 514.930664062 c 0
 506.010742188 514.930664062 544.311523438 473.185546875 545.071289062 392.571289062 c 0xa0
272.046875 115.963867188 m 0x40
 272.046875 28.1796875 237.11328125 -1.0703125 147.142578125 0 c 0
 57.171875 1.0703125 35.69921875 41.509765625 35.69921875 128 c 0
 35.69921875 214.490234375 37.6123046875 315 37.6123046875 388.513671875 c 0
 37.6123046875 462.028320312 78.1796875 511.77734375 146.483398438 510.963867188 c 0
 214.787109375 510.150390625 269.2109375 489.889648438 269.2109375 391.6953125 c 0
 269.2109375 293.5 272.046875 203.749023438 272.046875 115.963867188 c 0x40
EndSplineSet
EndChar

StartChar: s
Encoding: 115 115 16
Width: 418
GlyphClass: 2
Flags: MW
HStem: -4 122.229<128.084 162.445 128.084 256.286> 392.771 122.229
LayerCount: 2
Back
Fore
SplineSet
169.673828125 515 m 0
 31.2861328125 515 -49.5 424.5 -49.5 355.5 c 0
 -49.5 293.500976562 -32 251 33 213 c 0
 90.1640625 179.580078125 191.786132812 172.06640625 191.786132812 142 c 0
 191.786132812 126.5 179.790039062 118.228515625 145.100585938 118.228515625 c 0
 111.068359375 118.228515625 84.1005859375 122.228515625 56.681640625 130.279296875 c 0
 22.046875 140.448242188 -1.3828125 159.140625 -20.2138671875 159.140625 c 0
 -49.7138671875 159.140625 -62.3994140625 139.228515625 -62.3994140625 118.228515625 c 0
 -62.3994140625 69.728515625 25.443359375 -4 165.286132812 -4 c 0
 347.286132812 -4 406.286132812 95.228515625 406.286132812 147 c 0
 406.286132812 215 389.286132812 260 249.786132812 305 c 0
 188.981445312 324.614257812 142.953125 338 142.953125 378.33203125 c 0
 142.953125 399.83203125 164.099609375 414.099609375 199.443359375 414.099609375 c 0
 223.904296875 414.099609375 256.663085938 407.393554688 282.435546875 395.048828125 c 0
 308.286132812 382.666992188 342.612304688 351.859375 361.443359375 351.859375 c 0
 380.943359375 351.859375 395.943359375 367 395.943359375 392.771484375 c 0
 395.943359375 441.271484375 309.516601562 515 169.673828125 515 c 0
EndSplineSet
EndChar

StartChar: t
Encoding: 116 116 17
Width: 604
GlyphClass: 2
Flags: MW
HStem: 0 147<322.491 344.491 322.491 347.561> 332.798 178.317
VStem: 89.0304 218.541
LayerCount: 2
Back
Fore
SplineSet
307.072265625 607 m 0
 307.072265625 653.374023438 302.267578125 688.8515625 248.572265625 688.8515625 c 0
 176.072265625 688.8515625 90.5166015625 639.115234375 90.5166015625 582 c 0
 90.5166015625 444.115234375 89.03125 348.024414062 89.03125 228 c 0
 89.03125 72.9091796875 131.3515625 0 275.491210938 0 c 0
 419.630859375 0 486.991210938 38.5 486.991210938 112.5 c 0
 486.991210938 178.5 457.491210938 203.5 409.991210938 203.5 c 0
 345.491210938 203.5 355.991210938 147 332.991210938 147 c 0
 311.991210938 147 307.572265625 159 307.572265625 200 c 0
 307.572265625 320.921875 307.072265625 465.0390625 307.072265625 607 c 0
333.2578125 509.7890625 m 0
 254.340820312 510.708007812 180.709960938 510.047851562 94.2724609375 511.115234375 c 0
 7.8349609375 512.182617188 -13.3486328125 473.887695312 -14.3994140625 421.333007812 c 0
 -15.451171875 368.778320312 34.1982421875 333.569335938 99.8984375 332.797851562 c 0
 165.599609375 332.02734375 246.393554688 333.1640625 323.079101562 333.3359375 c 0
 399.765625 333.5078125 438.723632812 343.936523438 440.19921875 412.116210938 c 0
 441.674804688 480.293945312 412.17578125 508.87109375 333.2578125 509.7890625 c 0
EndSplineSet
EndChar

StartChar: u
Encoding: 117 117 18
Width: 980
GlyphClass: 2
Flags: MW
HStem: 0 167.104
VStem: 395.359 234.36 711.74 95.291 720.557 236.347
LayerCount: 2
Back
Fore
SplineSet
956.904296875 115.963867188 m 0x10
 956.904296875 28.1796875 921.970703125 -1.0703125 832 0 c 0
 742.029296875 1.0703125 720.556640625 41.509765625 720.556640625 128 c 0
 720.556640625 214.490234375 722.469726562 315 722.469726562 388.513671875 c 0
 722.469726562 462.028320312 763.037109375 511.77734375 831.340820312 510.963867188 c 0
 899.64453125 510.150390625 954.068359375 489.889648438 954.068359375 391.6953125 c 0
 954.068359375 293.5 956.904296875 203.749023438 956.904296875 115.963867188 c 0x10
620.0625 228.434570312 m 0xe0
 620.0625 179.73046875 633.697265625 166.748046875 667.6171875 167.1953125 c 0
 700.427734375 167.642578125 722.08203125 200.767578125 722.08203125 248.036132812 c 1
 817.373046875 248.965820312 l 1
 817.373046875 185.618164062 801.046875 106.401367188 741.90625 60.955078125 c 0
 677.287109375 15.8740234375 608.697265625 -0.0009765625 524.79296875 -0.0009765625 c 0
 448.6171875 -0.0009765625 397.728515625 41.755859375 392.18359375 121.8984375 c 0
 386.5546875 203.275390625 385.5390625 290.36328125 385.5390625 384.416015625 c 0
 385.5390625 477.036132812 412.748046875 514.999023438 502.95703125 514.999023438 c 0
 569.26171875 514.999023438 618.751953125 495.430664062 618.751953125 425.233398438 c 0
 618.751953125 353.579101562 620.0625 278.149414062 620.0625 228.434570312 c 0xe0
EndSplineSet
EndChar

StartChar: uni0082
Encoding: 130 130 19
Width: 578
GlyphClass: 2
Flags: MW
HStem: 618 147
VStem: 175.54 224.896 186.448 236.943
LayerCount: 2
Back
Fore
SplineSet
400.435546875 514.806640625 m 0xc0
 394.870117188 601.612304688 398.499023438 617.999023438 419.499023438 617.999023438 c 0
 442.499023438 617.999023438 431.999023438 561.499023438 496.499023438 561.499023438 c 0
 543.999023438 561.499023438 573.499023438 586.499023438 573.499023438 652.499023438 c 0
 573.499023438 726.499023438 506.138671875 764.999023438 361.999023438 764.999023438 c 0
 217.859375 764.999023438 175.5390625 665.999023438 175.5390625 510.908203125 c 0xc0
 175.5390625 372.063476562 186.447265625 265.999023438 186.447265625 155.060546875 c 0
 186.447265625 34.9990234375 225.8828125 -0.0009765625 303.87109375 -0.0009765625 c 0
 381.860351562 -0.0009765625 423.390625 34.9990234375 423.390625 163.372070312 c 0xa0
 423.390625 291.745117188 406.59375 409.39453125 400.435546875 514.806640625 c 0xc0
EndSplineSet
EndChar

StartChar: uni0083
Encoding: 131 131 20
Width: 562
GlyphClass: 2
Flags: MW
HStem: 353 162
VStem: 160 94
LayerCount: 2
Back
Fore
SplineSet
527.928710938 392.571289062 m 0
 528.6875 311.95703125 489.298828125 248.001953125 397.5 248.001953125 c 0
 305.701171875 248.001953125 321.379882812 352.001953125 289 352.001953125 c 0
 256.620117188 352.001953125 252.796875 327.711914062 253.719726562 274.072265625 c 1
 159.719726562 273.501953125 l 1
 159.719726562 338.08984375 186.590820312 409.26171875 235.84765625 452.240234375 c 0
 286 496.000976562 324.202148438 514.930664062 406.53515625 514.930664062 c 0
 488.868164062 514.930664062 527.168945312 473.185546875 527.928710938 392.571289062 c 0
EndSplineSet
EndChar

StartChar: uni0084
Encoding: 132 132 21
Width: 628
GlyphClass: 2
Flags: MW
HStem: 0 162
VStem: 30 225 43 213 331 95
LayerCount: 2
Back
Fore
SplineSet
273.990234375 228.399414062 m 0x90
 273.990234375 179.6953125 278.875 166.736328125 305.662109375 167.161132812 c 0
 332.44921875 167.5859375 336.012695312 199.071289062 336.012695312 244.001953125 c 1
 431.303710938 244.931640625 l 1
 431.303710938 182.931640625 414.500976562 106.001953125 355.790039062 60.884765625 c 0
 297.170898438 15.8388671875 222.114257812 -1.171875 153.772460938 -0.03515625 c 0
 85.4296875 1.1015625 51.744140625 41.52734375 46.1220703125 121.763671875 c 0
 40.5 202.000976562 39.4677734375 287.759765625 39.4677734375 380.379882812 c 0
 39.4677734375 473.000976562 73 511.000976562 145.025390625 511.000976562 c 0
 217.05078125 511.000976562 272.680664062 491.39453125 272.680664062 421.197265625 c 0
 272.680664062 351 273.990234375 277.104492188 273.990234375 228.399414062 c 0x90
EndSplineSet
EndChar

StartChar: uni0085
Encoding: 133 133 22
Width: 320
GlyphClass: 2
Flags: MW
HStem: 0 711
VStem: 65 217
LayerCount: 2
Back
Fore
SplineSet
295.518554688 163.373046875 m 0
 295.518554688 35 253.98828125 -0.0009765625 175.999023438 -0.0009765625 c 0
 98.009765625 -0.0009765625 58.5751953125 34.9990234375 58.5751953125 155.0625 c 0
 58.5751953125 275.125976562 56.154296875 507.288085938 56.154296875 601.64453125 c 0
 56.154296875 696.000976562 107.6953125 732.838867188 175.999023438 732.024414062 c 0
 244.302734375 731.2109375 284.012695312 716.825195312 290.170898438 611.413085938 c 0
 296.330078125 506 295.518554688 291.745117188 295.518554688 163.373046875 c 0
EndSplineSet
EndChar

StartChar: uni0086
Encoding: 134 134 23
Width: 674
GlyphClass: 2
Flags: MW
HStem: 38 81
VStem: 215.352 90.5 378.045 239.955
LayerCount: 2
Back
Fore
SplineSet
215.3515625 271.5 m 1
 215.3515625 416.899414062 360.7578125 515.921875 476.38671875 514.999023438 c 0
 547.4921875 514.447265625 618 462.999023438 618 261.999023438 c 0
 618 60.9990234375 540.431640625 -0.0009765625 455.499023438 0.9375 c 0
 373.9296875 1.8759765625 269.126953125 37.9990234375 240.458984375 37.9990234375 c 1
 240.458984375 118.999023438 l 1
 327.069335938 118.999023438 l 2
 365.911132812 118.999023438 378.044921875 131.68359375 378.044921875 163.723632812 c 0
 378.044921875 189.296875 378.8984375 239.11328125 378.814453125 262.607421875 c 0
 378.709960938 292.041992188 378.319335938 298.52734375 376.733398438 310.930664062 c 0
 374.438476562 323.333007812 366.813476562 343.5 344.364257812 343.5 c 0
 326.234375 343.5 314.547851562 336 309.723632812 322.69921875 c 0
 305.595703125 309.3984375 305.8515625 290.75 305.8515625 271.75 c 1
 305.8515625 271.75 270 271.5 215.3515625 271.5 c 1
EndSplineSet
EndChar

StartChar: uni0087
Encoding: 135 135 24
Width: 642
GlyphClass: 2
Flags: MW
HStem: 0 21G 495 20G
VStem: 145.244 95.291 343.867 233.212
LayerCount: 2
Back
Fore
SplineSet
342.556640625 286.563476562 m 0
 342.556640625 335.267578125 328.920898438 348.25 295.001953125 347.802734375 c 0
 262.190429688 347.35546875 240.537109375 314.23046875 240.537109375 266.961914062 c 1
 145.24609375 266.032226562 l 1
 145.24609375 329.379882812 161.571289062 408.596679688 220.712890625 454.04296875 c 0
 285.331054688 499.124023438 353.921875 514.999023438 437.826171875 514.999023438 c 0
 514.001953125 514.999023438 564.890625 473.2421875 570.434570312 393.099609375 c 0
 576.063476562 311.72265625 577.080078125 224.634765625 577.080078125 130.58203125 c 0
 577.080078125 37.9619140625 549.870117188 -0.0009765625 459.662109375 -0.0009765625 c 0
 393.357421875 -0.0009765625 343.8671875 19.5673828125 343.8671875 89.7646484375 c 0
 343.8671875 161.418945312 342.556640625 236.848632812 342.556640625 286.563476562 c 0
EndSplineSet
EndChar

StartChar: uni0088
Encoding: 136 136 25
Width: 662
GlyphClass: 2
Flags: MW
HStem: 0 167.104
VStem: 75.3594 234.36 391.74 95.291
LayerCount: 2
Back
Fore
SplineSet
300.0625 228.434570312 m 0
 300.0625 179.73046875 313.697265625 166.748046875 347.6171875 167.1953125 c 0
 380.427734375 167.642578125 402.08203125 200.767578125 402.08203125 248.036132812 c 1
 497.373046875 248.965820312 l 1
 497.373046875 185.618164062 481.046875 106.401367188 421.90625 60.955078125 c 0
 357.287109375 15.8740234375 288.697265625 -0.0009765625 204.79296875 -0.0009765625 c 0
 128.6171875 -0.0009765625 77.728515625 41.755859375 72.18359375 121.8984375 c 0
 66.5546875 203.275390625 65.5390625 290.36328125 65.5390625 384.416015625 c 0
 65.5390625 477.036132812 92.748046875 514.999023438 182.95703125 514.999023438 c 0
 249.26171875 514.999023438 298.751953125 495.430664062 298.751953125 425.233398438 c 0
 298.751953125 353.579101562 300.0625 278.149414062 300.0625 228.434570312 c 0
EndSplineSet
EndChar

StartChar: uni0089
Encoding: 137 137 26
Width: 668
GlyphClass: 2
Flags: MW
HStem: -4 134 380 135
VStem: 30 236 400 102
LayerCount: 2
Back
Fore
SplineSet
399.518554688 252 m 0
 399.518554688 314.041015625 377.685546875 380.138671875 328.326171875 380.431640625 c 0
 289.153320312 380.6640625 265.518554688 313.818359375 265.518554688 252 c 0
 265.518554688 194.393554688 285.446289062 130 327.518554688 130 c 0
 378.775390625 130 399.518554688 192.95703125 399.518554688 252 c 0
228.518554688 -4.228515625 m 0
 118.83984375 -4.228515625 29.892578125 88 29.892578125 252 c 0
 29.892578125 416.000976562 114.658203125 515 228.150390625 515 c 0
 386.104492188 515 501.518554688 359.74609375 501.518554688 261.385742188 c 0
 501.518554688 91.3779296875 381.049804688 -4.228515625 228.518554688 -4.228515625 c 0
EndSplineSet
EndChar

StartChar: uni008A
Encoding: 138 138 27
Width: 668
GlyphClass: 2
Flags: MW
HStem: -4 134 380 135
VStem: 30 102 266 236
LayerCount: 2
Back
Fore
SplineSet
131.893554688 252 m 0
 131.893554688 192.95703125 152.635742188 130 203.893554688 130 c 0
 245.96484375 130 265.893554688 194.393554688 265.893554688 252 c 0
 265.893554688 313.818359375 242.2578125 380.6640625 203.084960938 380.431640625 c 0
 153.725585938 380.138671875 131.893554688 314.041015625 131.893554688 252 c 0
302.893554688 -4.228515625 m 0
 150.361328125 -4.228515625 29.8935546875 91.376953125 29.8935546875 261.384765625 c 0
 29.8935546875 359.614257812 145.306640625 516.1875 303.260742188 514.999023438 c 0
 416.75 514.146484375 501.518554688 416.000976562 501.518554688 252 c 0
 501.518554688 88 412.572265625 -4.228515625 302.893554688 -4.228515625 c 0
EndSplineSet
EndChar

StartChar: uni008B
Encoding: 139 139 28
Width: 492
GlyphClass: 2
Flags: MW
HStem: 332.798 178.317
LayerCount: 2
Back
Fore
SplineSet
332.685546875 509.7890625 m 0
 253.768554688 510.708007812 180.140625 510.047851562 93.703125 511.115234375 c 0
 7.265625 512.18359375 -13.91796875 473.888671875 -14.9697265625 421.333984375 c 0
 -16.021484375 368.779296875 33.6279296875 333.5703125 99.328125 332.799804688 c 0
 165.028320312 332.028320312 245.822265625 333.165039062 322.5078125 333.336914062 c 0
 399.193359375 333.508789062 438.151367188 343.9375 439.626953125 412.116210938 c 0
 441.102539062 480.293945312 411.603515625 508.87109375 332.685546875 509.7890625 c 0
EndSplineSet
EndChar

StartChar: dotlessi
Encoding: 257 305 29
Width: 362
GlyphClass: 2
Flags: MW
VStem: 58.5566 236.347
LayerCount: 2
Back
Fore
SplineSet
294.904296875 115.963867188 m 0
 294.904296875 28.1796875 259.970703125 -1.0703125 170 0 c 0
 80.029296875 1.0703125 58.556640625 41.509765625 58.556640625 128 c 0
 58.556640625 214.490234375 60.4697265625 315 60.4697265625 388.513671875 c 0
 60.4697265625 462.028320312 101.037109375 511.77734375 169.340820312 510.963867188 c 0
 237.64453125 510.150390625 292.068359375 489.889648438 292.068359375 391.6953125 c 0
 292.068359375 293.5 294.904296875 203.749023438 294.904296875 115.963867188 c 0
EndSplineSet
EndChar
